<svg xmlns="http://www.w3.org/2000/svg" viewBox="0 0 391.18 109.82"><defs><style>.cls-1,.cls-2{fill:none;stroke:#29235c;stroke-miterlimit:10;}.cls-1{stroke-width:2px;}.cls-2{stroke-width:3px;}</style></defs><g id="Calque_2" data-name="Calque 2"><g id="Calque_2-2" data-name="Calque 2"><path class="cls-1" d="M27.15,65.67,22.35,60h0c-1.47-3.12-1.11-5.2-2.25-5.46C17.89,54.05,15,60,15,60L4,68.67,1.09,101.84l388.6,6.73"/><path class="cls-2" d="M2.05,90.89q33.08-37.24,66.16-74.5S73.55,2.5,78.84,3.17c4.13.52,6.06,10.07,6.8,13.22,2.87,12.35,11.89,30.78,39.44,56.87L139.29,60s4-6.93,8.35-6.25c2.24.35,3.17,3,5.41,6.25A39.74,39.74,0,0,0,163.6,70.4"/><path class="cls-2" d="M244,66.46l21.89-20.92s6.87-21.76,15.13,0a48.74,48.74,0,0,0,4.2,9.18,33.37,33.37,0,0,0,2.36,3.19c3.95,4.6,9.5,6.89,13.16,8"/><path class="cls-2" d="M287.56,57.91,326.4,11.69s8.37-23.38,12.61.69c0,0,2.17,10.83,49.53,79.8l1.15,17.54"/><path class="cls-1" d="M197.53,102.61l-3-5.22-3-5.21-12.43,9.75-3.39,2.93"/><polyline class="cls-1" points="195.87 99.7 209.46 89.54 224.82 105.2"/><polyline class="cls-1" points="155.8 74.18 161.53 70.97 163.6 74.18"/><polyline class="cls-1" points="166.81 74.18 175.75 68.13 180.79 74.18"/><polyline class="cls-1" points="161.24 68.13 166.81 63.86 170.02 68.67 175.75 63.86 180.79 70.05"/><polyline class="cls-1" points="180.79 76.24 186.64 70.97 190.43 76.24"/><path class="cls-1" d="M179.21,68.11,184.3,60l3.6,8.13,4.59-4.27,6.12,6.76"/><polyline class="cls-1" points="197.53 72.57 202.35 63.86 204.18 71.16"/><polyline class="cls-1" points="204.18 78.31 209.23 74.18 212.67 80.14"/><polyline class="cls-1" points="208.43 70.97 213.59 65.94 216.34 71.16"/><path class="cls-1" d="M203.87,69.9l11.32-13.15,7.67,7.66"/><polyline class="cls-1" points="222.99 70.97 228.26 66.95 235.37 76.24"/><path class="cls-1" d="M221.38,65.94,227.11,60,239,67.55"/><path class="cls-1" d="M237.2,71c0-1.84,4.82-7.11,4.82-7.11l5.5,7.29"/></g></g></svg>