<svg xmlns="http://www.w3.org/2000/svg" xmlns:xlink="http://www.w3.org/1999/xlink" viewBox="0 0 394.12 382.15"><defs><style>.cls-1{fill:#305a44;stroke:#305a44;}.cls-1,.cls-10,.cls-11,.cls-12,.cls-13,.cls-14,.cls-4,.cls-5,.cls-6,.cls-7,.cls-8,.cls-9{stroke-miterlimit:10;}.cls-2{fill:url(#Dégradé_sans_nom_17);}.cls-3{fill:#36a9e1;}.cls-11,.cls-12,.cls-13,.cls-14,.cls-4,.cls-6,.cls-7{fill:none;}.cls-4{stroke:#36a9e1;}.cls-12,.cls-4{stroke-width:3px;}.cls-5,.cls-8{fill:#6d201f;stroke:#652d3f;}.cls-5{stroke-width:5.94px;}.cls-6,.cls-7,.cls-9{stroke:#662483;}.cls-7{stroke-width:0.57px;}.cls-8{stroke-width:6px;}.cls-9{fill:#1c1d3d;}.cls-10{fill:#fbfcfd;stroke-width:0.5px;}.cls-10,.cls-14{stroke:#1d1d1b;}.cls-11,.cls-12{stroke:#29235c;}.cls-11{stroke-width:2px;}.cls-13{stroke:#000;}.cls-13,.cls-14{stroke-width:5px;}</style><linearGradient id="Dégradé_sans_nom_17" x1="164.06" y1="551.94" x2="457.69" y2="551.94" gradientUnits="userSpaceOnUse"><stop offset="0" stop-color="#1d71b8"/><stop offset="0.36" stop-color="#36a9e1"/><stop offset="1" stop-color="#29235c"/></linearGradient></defs><g id="Ground"><rect class="cls-1" x="3.02" y="218.04" width="390.55" height="161.16"/></g><g id="Calque_5" data-name="Calque 5"><path class="cls-2" d="M171,569.3c-3.57-4.52-8.24-10.44-6.61-15.83,1.78-5.88,10-8.34,15.8-9.59,21.81-4.72,42.55-13.39,63-22.43,11-4.86,22.29-9.93,34.28-9.88,9,0,17.79,3,26.8,3.19,7,.15,13.92-1.35,20.9-1.63,14.29-.57,28.23,4,41.8,8.49,12.17,4,24.37,8.08,35.89,13.7,6.9,3.37,13.52,7.29,20.14,11.2l18.39,10.88c5.65,3.34,11.46,6.82,15.32,12.13a3.89,3.89,0,0,1,1,2.77,4.17,4.17,0,0,1-1.81,2.34c-11.26,8.94-23.92,18.35-38.28,17.64-6.05-.3-11.85-2.42-17.53-4.52l-25.77-9.5c-9.54-3.51-19.94-7.06-29.63-4-5.82,1.83-10.81,5.91-16.76,7.21-12.56,2.76-24.33-7.39-37.13-8.6-9.9-.93-19.38,3.53-28.91,6.35a89.71,89.71,0,0,1-13.93,3c-3.1.4-6.34.63-9.28-.45-4.3-1.59-7.19-5.71-11.29-7.76-5.1-2.55-10.41-.88-19.07,1.62-12.21,3.52-12.48,7-18.49,6.69C180.89,581.83,174.61,573.87,171,569.3Z" transform="translate(-111.41 -260.77)"/><path class="cls-3" d="M171.45,568.86c-2.91-3.68-6.93-8.28-6.76-13.29.14-4.54,4.24-7.27,8-8.83,4.17-1.72,8.66-2.43,13-3.51,5.55-1.37,11-3,16.45-4.77,10.74-3.54,21.25-7.78,31.63-12.26s20.63-9.79,31.65-12.49a49.57,49.57,0,0,1,16.9-1.24c5.68.58,11.25,1.91,16.91,2.56,5.84.66,11.57.14,17.38-.53A83.1,83.1,0,0,1,334,514c11.72,1.11,23,5,34.09,8.65s22.11,7.39,32.65,12.36,20.54,11.23,30.6,17.18c4.82,2.85,9.72,5.61,14.44,8.62a49.27,49.27,0,0,1,6.25,4.6,28.66,28.66,0,0,1,2.54,2.51c1,1.1,2.56,2.63,2.34,4.2-.19,1.38-1.63,2.17-2.66,3s-2.26,1.77-3.4,2.64c-2.06,1.57-4.15,3.09-6.29,4.54a62.38,62.38,0,0,1-13.73,7.24,34,34,0,0,1-15.18,2c-5.82-.65-11.36-2.83-16.82-4.84l-17-6.27c-5.43-2-10.83-4.15-16.39-5.78-5.13-1.51-10.55-2.55-15.91-2-5.13.53-9.48,2.79-14,5.11s-9.27,4-14.56,3.44c-4.8-.49-9.37-2.31-13.82-4.07s-9-3.64-13.75-4.5a36.19,36.19,0,0,0-15.11.81c-5.39,1.31-10.57,3.34-15.87,5a79,79,0,0,1-16.88,3.42,14.49,14.49,0,0,1-8.21-1.34,38.66,38.66,0,0,1-5.72-4.32c-3-2.47-6.25-4.15-10.24-4.06-4.6.09-9.18,1.7-13.56,3a57.45,57.45,0,0,0-11,4.53c-2.1,1.14-4.06,2.11-6.51,2.08-4.42,0-8.47-2.21-11.76-5a54,54,0,0,1-7.1-7.78c-.5-.63-1.38.26-.89.89,4.81,6.08,10.72,12.61,19,13.13a12.39,12.39,0,0,0,6.83-1.65,62.66,62.66,0,0,1,10.45-4.57c4.66-1.47,9.78-3.3,14.72-3.35s8.16,2.94,11.76,5.86a17.32,17.32,0,0,0,5.88,3.39,19.75,19.75,0,0,0,7.92.33,91,91,0,0,0,16.66-3.63c5.54-1.74,11-3.87,16.66-5.06a33.73,33.73,0,0,1,16.46.51c9.22,2.63,18.15,8.49,28.07,7.78,5.07-.36,9.42-2.78,13.85-5a33.57,33.57,0,0,1,7.77-3.08,28.09,28.09,0,0,1,9-.5c5.87.53,11.53,2.45,17,4.45,5.81,2.11,11.61,4.28,17.41,6.42s11.37,4.39,17.18,6.18a38.15,38.15,0,0,0,16.25,1.74c10.37-1.38,19.48-7.33,27.65-13.51a71.26,71.26,0,0,0,5.89-4.62c1.72-1.63,1.55-3.45.24-5.31-2.84-4-6.9-7-11-9.6-5-3.16-10.15-6.07-15.23-9.07-5.23-3.1-10.44-6.23-15.71-9.25a202.54,202.54,0,0,0-32.34-14.88c-11.26-4-22.69-8.08-34.29-11a93,93,0,0,0-17.13-2.83c-6.13-.36-12.15.42-18.24,1.07a68,68,0,0,1-18.19-.45c-5.67-.91-11.33-2.15-17.1-2.24-11.41-.19-22.18,4.24-32.44,8.76-11,4.84-22,9.68-33.25,13.87A268,268,0,0,1,179,543.51c-6.86,1.59-17,5.22-15.38,14.13.83,4.62,4.12,8.53,6.94,12.11C171.06,570.38,171.94,569.49,171.45,568.86Z" transform="translate(-111.41 -260.77)"/></g><g id="Rocks"><path class="cls-4" d="M161.8,556.05" transform="translate(-111.41 -260.77)"/><path class="cls-5" d="M114.43,549.56l1.42-1.91v-8.89l7.84-1.85h11.05l5.12,4.92v9.85l6.86,1.79,4.38,6.72v5.37h8.52l6.45,4.93,5.58-3.27,10.09,3.27,3.22,7.69H190l4.55,5.29h5.12v6.27l6.45,4.93,5.07-4.48,3.69.45v4l4.6,2.23h6v17l7.37,2.69h6v4.47l5.53,5.82,19.36,12.8-149.32-3.63,1.42-88.42" transform="translate(-111.41 -260.77)"/><path class="cls-6" d="M175.86,629" transform="translate(-111.41 -260.77)"/><path class="cls-6" d="M268,618" transform="translate(-111.41 -260.77)"/><path class="cls-6" d="M382.23,630.19" transform="translate(-111.41 -260.77)"/><path class="cls-6" d="M509.57,575.46" transform="translate(-111.41 -260.77)"/><path class="cls-6" d="M466.31,640" transform="translate(-111.41 -260.77)"/><path class="cls-7" d="M171.9,625.49l.27,0Z" transform="translate(-111.41 -260.77)"/><path class="cls-8" d="M412.79,637l-40,.25,6-4,15.44-9-6.65-8.94,8.75-5,8.3-4.76h17.58l.61-7.34,2.6-4,7.49,1.08,1.53-5.81,2-1.53V577.23l6.87-4.37L457.9,572l8.25-3.67,1.53-12.54,13-10.85,4.74-2.14,14.37.3c.24,27.85.61,44.81,1,55.4,0,.55,0,7.52.05,21.46,0,8.39,0,12.62-1,14.19-4.36,6.76-16.82,4.08-39.84,2.87C444.3,636.15,428.53,636.88,412.79,637Z" transform="translate(-111.41 -260.77)"/><path class="cls-6" d="M368.2,665.46" transform="translate(-111.41 -260.77)"/><path class="cls-6" d="M170.07,620.14" transform="translate(-111.41 -260.77)"/><path class="cls-8" d="M390,622.76l-7-1.28-2.3,2.82-4.28,1.15-2.9-2.9h-4.44l-5.19,4-.81,4.92-11.42.43c-.77-2.52-1.53-5-2.3-7.57l-3.82-5.12-4.28-.15h-2.75l1.84,5.27-3.83-1-7.95,1-.91-2.06-1.07-2.75-2.91-1.23H320l-2.29,3.22h-9.78L306.26,620H304l-5.2,6.72.31,3.85-8.71-.18v-1.83l-2.91-1.38-1.52-2.44-1.53-.77h-3.67l-6.27-1.22,1.07-3.21-11.46-1-2-2.25-9.34-3.15-13.44,3.45,20.93,21,109,2.07Z" transform="translate(-111.41 -260.77)"/></g><g id="herbe"><path class="cls-1" d="M353.83,608.14" transform="translate(-111.41 -260.77)"/></g><g id="Sky"><rect class="cls-9" x="3.02" y="2.5" width="388.6" height="218.56"/></g><g id="sky_elements" data-name="sky elements"><path class="cls-10" d="M231.08,341.12" transform="translate(-111.41 -260.77)"/></g><g id="Calque_2" data-name="Calque 2"><path class="cls-11" d="M140.21,445.17l-4.91-5.58h0c-1.53-3.09-1.21-5.18-2.35-5.41-2.23-.45-5,5.56-5,5.56l-10.83,8.88-2.27,33.22L503.52,481" transform="translate(-111.41 -260.77)"/><path class="cls-12" d="M115.39,467.09l66.16-74.49s5.34-13.9,10.63-13.23c4.13.53,6.06,10.08,6.79,13.23,2.88,12.35,11.9,30.77,39.44,56.86l14.22-13.26s4-6.93,8.35-6.25c2.24.35,3.17,3,5.41,6.25a39.29,39.29,0,0,0,10.55,10.4" transform="translate(-111.41 -260.77)"/><path class="cls-12" d="M357.32,442.66l21.88-20.91s6.88-21.76,15.14,0a48.74,48.74,0,0,0,4.2,9.18,32.45,32.45,0,0,0,2.36,3.18c4,4.61,9.5,6.9,13.16,8" transform="translate(-111.41 -260.77)"/><path class="cls-12" d="M439.28,390.31" transform="translate(-111.41 -260.77)"/><path class="cls-12" d="M402.59,432" transform="translate(-111.41 -260.77)"/><path class="cls-12" d="M400.9,434.11l38.84-46.21s8.37-23.39,12.61.69c0,0,2.17,10.82,49.53,79.79L503,485.92" transform="translate(-111.41 -260.77)"/><path class="cls-12" d="M141.7,444.34" transform="translate(-111.41 -260.77)"/><path class="cls-11" d="M310.87,478.82l-3-5.22-3-5.22-12.43,9.75-3.39,2.94" transform="translate(-111.41 -260.77)"/><path class="cls-11" d="M319.13,462.76" transform="translate(-111.41 -260.77)"/><polyline class="cls-11" points="197.8 215.13 211.39 204.97 226.75 220.63"/><polyline class="cls-11" points="157.73 189.61 163.46 186.4 165.53 189.61"/><polyline class="cls-11" points="168.74 189.61 177.68 183.56 182.72 189.61"/><polyline class="cls-11" points="163.16 183.56 168.74 179.29 171.95 184.1 177.68 179.29 182.72 185.48"/><polyline class="cls-11" points="182.72 191.67 188.57 186.4 192.35 191.67"/><path class="cls-11" d="M292.55,444.32l5.09-8.12,3.6,8.14,4.59-4.28,6.12,6.77" transform="translate(-111.41 -260.77)"/><polyline class="cls-11" points="199.46 188 204.28 179.29 206.11 186.59"/><polyline class="cls-11" points="206.11 193.74 211.16 189.61 214.6 195.57"/><polyline class="cls-11" points="210.35 186.4 215.51 181.37 218.26 186.59"/><path class="cls-11" d="M317.21,446.1,328.53,433l7.66,7.66" transform="translate(-111.41 -260.77)"/><polyline class="cls-11" points="224.91 186.4 230.19 182.38 237.3 191.67"/><path class="cls-11" d="M334.72,442.14l5.73-5.94,11.88,7.56" transform="translate(-111.41 -260.77)"/><path class="cls-11" d="M350.54,447.17c0-1.83,4.82-7.11,4.82-7.11l5.5,7.3" transform="translate(-111.41 -260.77)"/><path class="cls-11" d="M379.43,434.33" transform="translate(-111.41 -260.77)"/><path class="cls-12" d="M231.76,454.28" transform="translate(-111.41 -260.77)"/><path class="cls-4" d="M107.71,498.08" transform="translate(-111.41 -260.77)"/><path class="cls-6" d="M83.56,578.64" transform="translate(-111.41 -260.77)"/></g><g id="Calque_3" data-name="Calque 3"><rect class="cls-13" x="3.02" y="2.5" width="388.6" height="376.97"/><path class="cls-14" d="M117.46,563.31" transform="translate(-111.41 -260.77)"/></g></svg>