<svg id="Layer_1" data-name="Layer 1" xmlns="http://www.w3.org/2000/svg" xmlns:xlink="http://www.w3.org/1999/xlink" viewBox="0 0 1310.59 928.26"><defs><style>.cls-1{fill:none;}.cls-2{clip-path:url(#clip-path);}.cls-3{fill:url(#Degradado_sin_nombre_26);}.cls-4{opacity:0.04;}.cls-27,.cls-5{fill:#fff;}.cls-6,.cls-9{opacity:0.32;}.cls-7{fill:url(#Degradado_sin_nombre_38);}.cls-8{fill:url(#Degradado_sin_nombre_38-2);}.cls-9{fill:url(#Degradado_sin_nombre_38-3);}.cls-10{fill:#d4b3bf;opacity:0.31;}.cls-11,.cls-23,.cls-25,.cls-26{opacity:0.4;}.cls-12{fill:#569cc2;}.cls-13{fill:#f2f5ee;}.cls-14{fill:#8fc9db;}.cls-15{fill:#fefef6;}.cls-16{fill:#80b8cf;}.cls-17{fill:#5b80c2;}.cls-18{fill:#8fc7dc;opacity:0.45;}.cls-19{fill:#3856a6;}.cls-20{fill:#2e4c95;}.cls-21{fill:#1b3f7a;}.cls-22{fill:#f5e5da;}.cls-23{fill:url(#Degradado_sin_nombre_32);}.cls-24{opacity:0.5;fill:url(#Degradado_sin_nombre_32-2);}.cls-25{fill:url(#Degradado_sin_nombre_32-3);}.cls-26{fill:url(#Degradado_sin_nombre_32-4);}.cls-27{opacity:0.17;}</style><clipPath id="clip-path" transform="translate(179.16 98.07)"><rect class="cls-1" width="967.54" height="596.28"/></clipPath><linearGradient id="Degradado_sin_nombre_26" x1="665.96" y1="90.17" x2="659.96" y2="695.97" gradientUnits="userSpaceOnUse"><stop offset="0" stop-color="#0061d8"/><stop offset="0.45" stop-color="#b5a1bb"/><stop offset="1" stop-color="#f4dfcc"/></linearGradient><linearGradient id="Degradado_sin_nombre_38" x1="462.96" y1="115" x2="719.71" y2="115" gradientUnits="userSpaceOnUse"><stop offset="0" stop-color="#fff"/><stop offset="1" stop-color="#f4dfcc" stop-opacity="0"/></linearGradient><linearGradient id="Degradado_sin_nombre_38-2" x1="144.81" y1="180.54" x2="358.14" y2="180.54" xlink:href="#Degradado_sin_nombre_38"/><linearGradient id="Degradado_sin_nombre_38-3" x1="3" y1="50.05" x2="113.61" y2="50.05" xlink:href="#Degradado_sin_nombre_38"/><linearGradient id="Degradado_sin_nombre_32" x1="583.45" y1="528.32" x2="673.44" y2="681.31" gradientUnits="userSpaceOnUse"><stop offset="0" stop-color="#fff"/><stop offset="1" stop-color="#f4dfcc" stop-opacity="0"/></linearGradient><linearGradient id="Degradado_sin_nombre_32-2" x1="832.31" y1="455.26" x2="933.31" y2="693.25" xlink:href="#Degradado_sin_nombre_32"/><linearGradient id="Degradado_sin_nombre_32-3" x1="1069.53" y1="495.04" x2="1109.61" y2="589.47" xlink:href="#Degradado_sin_nombre_32"/><linearGradient id="Degradado_sin_nombre_32-4" x1="1119.69" y1="501.93" x2="1138.88" y2="547.16" xlink:href="#Degradado_sin_nombre_32"/></defs><g class="cls-2"><rect class="cls-3" x="179.16" y="98.07" width="967.54" height="596.28"/><g class="cls-4"><path class="cls-5" d="M1019.07,177.42s-1.71-18.31-67.93-10.68S842.34,214,784,211s-190.49-43.77-253.86-46.1C456,162.16,381.91,190.41,292,187.73S158,126.89-31,163.32v45.17s58.1-50.9,129.06-44.8,94.61,58.53,173.45,61.58,176.6-55.48,244.4-44.8,146.65,95.63,247.56,88,118.73-69.69,182.92-81.89c51.43-9.79,72.66,11.41,72.66,11.41Z" transform="translate(179.16 98.07)"/></g><g class="cls-6"><path class="cls-7" d="M463,140.17H719.71l-71.32-10.84s-4.07-41.41-31.58-39.43-25.47,37.46-25.47,37.46S573,104.68,549.56,110.6s-14.26,20.7-14.26,20.7Z" transform="translate(179.16 98.07)"/></g><g class="cls-6"><path class="cls-8" d="M144.81,207.36H358.14l-98.46-8.93s-13.33-46.64-45.13-44.65-24.61,38.7-24.61,38.7-20.51-22.89-25.64-11.94,5.13,17.89,5.13,17.89Z" transform="translate(179.16 98.07)"/></g><path class="cls-9" d="M3,68.11H113.61L93.72,58.49S90,30.83,67.62,32s-18,25.25-18,25.25Z" transform="translate(179.16 98.07)"/><g class="cls-4"><path class="cls-5" d="M-31,32.39S-29.27,14.08,37,21.71,145.76,69,204.1,66,394.59,22.17,458,19.85c74.11-2.72,148.22,25.52,238.1,22.84s134-60.84,323-24.4V63.45S961,12.55,890,18.65,795.41,77.18,716.57,80.23,540,24.76,472.16,35.44s-146.64,95.62-247.56,88S105.87,53.74,41.69,41.54C-9.74,31.76-31,53-31,53Z" transform="translate(179.16 98.07)"/></g><path class="cls-10" d="M206.16,314.17S333.44,261.69,386.25,252s203.21,0,203.21,0L689.79,239.8l83.3-62L871.78,208,918.23,252V515.45H186.54Z" transform="translate(179.16 98.07)"/><g class="cls-11"><path class="cls-12" d="M-179.16,353l110.45-72,20.26,9.16L5.23,240.49l52.61-57.08,42.34-60.93L131.84,109,143,122.48l27.34,30,75,64.51,13.16-9.16,13.17,15.7,56.72,62.79,6.08-24.68,7.09-8,9.11,8,62.8,78.33,8.1-20.94h12.16l8.1,11.78s62.8,70.64,65.84,71.95,6.07,125.6,6.07,125.6Z" transform="translate(179.16 98.07)"/><polygon class="cls-13" points="37.52 466.77 123.62 395.47 99.31 438.44 252.16 292.77 180.34 379.77 221.33 350.66 152.99 438.44 196.54 407.89 121.59 507.32 144.84 512.56 237.06 395.47 144.84 537.41 235.03 430.13 155.02 553.11 37.52 466.77"/><path class="cls-14" d="M124.24,216.94l-38,49.71L128.8,230l27.34,36.63L146,290.2,156.14,281l11.12,30.09-9.09,40.56L93.35,370h42.54L73,387l39.09,13.08-14.18,23,415.77,105.2s-3-124.29-6.07-125.6-65.84-71.95-65.84-71.95L433.67,319H421.51l-8.1,20.94-62.8-78.33-9.11-8-7.09,8-6.08,24.68-56.72-62.79-13.17-15.7-13.16,9.16-75-64.51L143,122.48,131.84,109l19.24,43.39Z" transform="translate(179.16 98.07)"/><path class="cls-12" d="M128.8,230l27.34,36.63,34.44,45.79L156.14,281l11.12,30.09-9.09,40.56,31.4,17,17.22,20.93-48.62-22.24L143,375.24l-8.11,22.24h27.35l21.27,24.86,1.77,22.87,328.42,83.1s-.9-36.74-2.21-70.48l-12-13.25-20.25-10.47-24.31-10.47,12.15,27.48-12.15-5.24-22.28-11.77-25.33-27.47L343.52,336l-24.31,2.62,26.34,44.48-1,14.39-16.21-7.85,27.35,44.48L305,397.48l-17.22-22.24-31.39-28.13h31.39L199.7,253.57,147,217.65V201.24l59.76,24.85-55.71-73.66-26.84,64.51v17Z" transform="translate(179.16 98.07)"/><polygon class="cls-15" points="437.6 305.85 491.28 395.47 424.44 315.01 437.6 305.85"/><polygon class="cls-15" points="520.66 351.64 529.77 359.66 592.57 437.99 634.1 495.55 516.61 379.11 534.84 407.89 507.49 384.35 513.57 359.66 520.66 351.64"/><polygon class="cls-15" points="600.67 417.05 646.25 473.31 620.93 428.83 612.83 417.05 600.67 417.05"/></g><path class="cls-16" d="M450.78,467.82s-2.7-90.88,94.67-129.13,112.77-22.75,157.81-86.25S864.72,196,866.38,195.21s132.43-161.27,180.93-79.77,68.63,555.09,68.63,555.09-454-37.67-477.5-49.85S450.78,467.82,450.78,467.82Z" transform="translate(179.16 98.07)"/><path class="cls-17" d="M-64.33,287.37s108.74-99.62,238.07-31S303.21,410.45,477.86,403s341.6-125.94,418.46-52.36S851,590.36,840.65,589.83,430.64,714.05,416,712.42s-152.11-6.13-225.13-37.63S51.27,634.4,27.57,590.1-64.33,287.37-64.33,287.37Z" transform="translate(179.16 98.07)"/><path class="cls-18" d="M173.74,262.53C303.07,331.12,303.21,416.65,477.86,409.2s341.6-125.93,418.46-52.35c17.41,16.67,24.61,38.08,25.2,61.23.6-25.51-6.24-49.28-25.2-67.43C819.46,277.07,652.51,395.56,477.86,403S303.07,324.92,173.74,256.34s-238.07,31-238.07,31l1.33,5C-50.24,281.43,52.74,198.37,173.74,262.53Z" transform="translate(179.16 98.07)"/><path class="cls-19" d="M-26,364.91l12.33-56.5,9.17,39.42L4,315.41l12.3,55.89,4.31-40.92,7.89,49L43,350.51l5,41.61,10.5-41.61L65,392.12l9.88-31.67,10.12,42,11.52-34.16,7,31.58,8.5-33.92,9.5,36.5,13.5-65.8,11.19,71.78,4.31-31.47,5.5,39.37,15.07-32,6.15,37.66,7.38-33s9.38,50.16,8.54,48.63,10.36-34.17,10.36-34.17l7.43,37.74,13.64-30.74,4.26,36.18,7.08-33.69s6.67,40.09,6.39,39.21,7.7-30.19,7.7-30.19l7,30.19h11.75l4.72-22.78,5.61,34.13,30.39,5.08,2.75-22,5.75,25.2-.65-19.67,7.15,19.67,3.5-18.14,10.47,26.14,21.77-90.88,21.1,82.88,16.22-7.13V432.41l11.08,31.21,24.54-58.71,8,69,9.85-15.39,6.35-48.43,11.3,53.38,16.71-16.35L493,479.79l25.5-23.08v15.08l6-18.14,4.71,22h36.26L563,429.29l11,50.5,3.36-15.13L581,476.91l12-15.5,3.49,12.49,30.9-13.49,42.24,36-14.65,96.65-672.1,3.22Z" transform="translate(179.16 98.07)"/><path class="cls-20" d="M1003,219.61c-1-.34-10.34-36.78-10.34-36.78l-10.91,32.74-7.28-21.83-7.14,23.53-10-30-10.74,44.06-4.92-33.72-5,37.66-5-22.92-6.34,25.92-7-35-7,44-3.44-17.67S902,248.27,902,247.27s-6.33-43.33-6.33-42.33-10.91,50.64-10.91,50.64L878,238.73l-6.18,33-6.45-22.13-11,34.14L851,267.27l-5.33,18.67-10-34L826,307.27l-6.71-21.38S815,309.94,815,308.94s-4.84-20-4.84-20L800,314.61l-8-34.67L774.3,343.27l-4-29-7,29-6-20.34s-8.33,31.68-8,30.68S748,322.93,748,322.93l-10.33,45.91-4-22.23-6,26.66L720,355.61l-5.19,27.33-8.33-27.73-9.15,31.6S692,312.61,691,313.94s-16,77.65-16,77.65l-10.52-21.93-3.75,31-5.42-21-8.09,31-5.41-23.84-4.4,28.46-5.35-30.89-7.38,40.06-17.33,9v-32.8l-5.16,39-9.88-29s-2.61,33.19-2.66,33.09-6.44-15.56-6.44-15.56l-6.13,20.58-7.77-24.32s-6.66,35.85-6.66,33.67-11.77-47.46-11.77-47.46l-10.69,69.29-13.64-24.33s-2.2,31.33-1.88,30.33-16-40.15-14.69-38.81-9.33,65.81-10,64.81-19.67-47.18-19.67-47.18l-10.59,50.53-8.18-15.17L458.3,522l-7-30.65-5.66,40.92-8-49.33-11.18,58.18-6.11-43.81-9.69,36.2L408,514.86v24.41l-4.13-20.19-8.48,22-12.06-17L380.47,543l-4-15.41-1.1,19.66-8.58-9-30.59,60.84,656.42,20Z" transform="translate(179.16 98.07)"/><polygon class="cls-21" points="301.88 595.93 319.58 601.13 307.31 570.02 290.02 556.79 303.67 560.81 285.95 515.88 267.73 559.83 278.06 556.79 264.78 566.95 250.91 600.43 266.2 595.93 246.53 610.97 235.61 637.34 333.86 637.34 324.29 613.07 301.88 595.93"/><polygon class="cls-21" points="471.31 557.59 488.29 565.37 476.51 518.84 459.93 499.06 473.03 505.06 456.03 437.88 438.55 503.6 448.45 499.06 435.72 514.25 422.41 564.32 437.08 557.59 418.22 580.09 407.73 619.51 501.98 619.51 492.8 583.23 471.31 557.59"/><polygon class="cls-5" points="456.03 437.88 464.06 482.07 472.67 503.67 456.03 437.88"/><polygon class="cls-5" points="476.12 518.37 461.31 506.57 459.93 499.06 476.12 518.37"/><polygon class="cls-5" points="492.8 583.23 473.56 565.82 471.31 557.59 492.8 583.23"/><polygon class="cls-21" points="424.18 564.09 441.16 571.87 429.39 525.34 412.81 505.56 425.9 511.56 408.9 444.38 391.43 510.1 401.33 505.56 388.6 520.75 375.28 570.82 389.95 564.09 371.09 586.59 360.61 626.01 454.86 626.01 445.68 589.73 424.18 564.09"/><polygon class="cls-5" points="408.9 444.38 416.93 488.57 425.55 510.17 408.9 444.38"/><polygon class="cls-5" points="429 524.87 414.18 513.07 412.81 505.56 429 524.87"/><polygon class="cls-5" points="445.68 589.73 426.43 572.32 424.18 564.09 445.68 589.73"/><path class="cls-22" d="M383.94,395.4s91.05,27.2,225.83-15C609.77,380.36,468.78,428.29,383.94,395.4Z" transform="translate(179.16 98.07)"/><path class="cls-16" d="M636.27,330.5s11-54,11-52.5,6.94,22.33,6.94,22.33l6.06-46.83,5.5,31,7.5-21.5,7.5,29-29,26" transform="translate(179.16 98.07)"/><path class="cls-16" d="M845.77,217.17c0-1,6.33-43.67,6.33-43.67S854,195.35,855,195.33s6.73-35.16,6.73-35.16l4,39.33,5.67-39.33,4.66,36.66,5-39.66,11.34,32.66Z" transform="translate(179.16 98.07)"/><path class="cls-16" d="M505.77,380.36c-.5-1.36,7.91-40.56,7.91-40.56l4.46,20.28,6.77-29.58,7.5,28,3.56-25,7.44,21.93-37.66,26" transform="translate(179.16 98.07)"/><path class="cls-21" d="M-34.32,554.4,1044.77,403.55l28.06,134.69-9,149.85s-359.64,32.19-383.06,23.32S-59.61,682.32-58.11,676.68-34.32,554.4-34.32,554.4Z" transform="translate(179.16 98.07)"/><polygon class="cls-21" points="991.54 512.71 974.9 518.36 986.44 484.55 1002.69 470.19 989.86 474.55 1006.52 425.73 1023.64 473.48 1013.94 470.19 1026.42 481.22 1039.46 517.59 1025.09 512.71 1043.57 529.05 1053.85 557.7 961.48 557.7 970.47 531.34 991.54 512.71"/><polygon class="cls-5" points="1006.52 425.73 998.65 457.84 990.2 473.53 1006.52 425.73"/><polygon class="cls-5" points="986.82 484.22 1001.34 475.64 1002.69 470.19 986.82 484.22"/><polygon class="cls-5" points="970.47 531.34 989.34 518.69 991.54 512.71 970.47 531.34"/><polygon class="cls-21" points="1077.31 521.53 1067.16 524.98 1074.2 504.35 1084.12 495.58 1076.29 498.24 1086.45 468.45 1096.91 497.59 1090.98 495.58 1098.6 502.31 1106.56 524.51 1097.79 521.53 1109.07 531.5 1115.34 548.98 1058.97 548.98 1064.46 532.9 1077.31 521.53"/><polygon class="cls-5" points="1086.45 468.45 1081.65 488.05 1076.5 497.62 1086.45 468.45"/><polygon class="cls-5" points="1074.43 504.14 1083.3 498.91 1084.12 495.58 1074.43 504.14"/><polygon class="cls-5" points="1064.46 532.9 1075.97 525.18 1077.31 521.53 1064.46 532.9"/><polygon class="cls-23" points="498.12 604.24 602.98 694.35 810.93 694.07 677.11 579.09 498.12 604.24"/><polygon class="cls-24" points="677.11 579.09 799.88 570.92 970.47 694.35 1141.93 695.3 937.1 542.74 677.11 579.09"/><polygon class="cls-21" points="785.5 553.77 796.86 558.98 788.98 527.85 777.89 514.63 786.65 518.64 775.28 473.7 763.59 517.66 770.21 514.63 761.7 524.78 752.79 558.27 762.6 553.77 749.99 568.82 742.98 595.19 806.02 595.19 799.88 570.92 785.5 553.77"/><polygon class="cls-5" points="775.28 473.7 780.65 503.26 786.41 517.71 775.28 473.7"/><polygon class="cls-5" points="788.72 527.54 778.81 519.65 777.89 514.63 788.72 527.54"/><polygon class="cls-5" points="799.88 570.92 787 559.28 785.5 553.77 799.88 570.92"/><polygon class="cls-25" points="1043.57 529.05 1146.93 609.57 1146.93 582.24 1067.16 524.98 1043.57 529.05"/><polygon class="cls-26" points="1104.7 519.31 1154.6 557.7 1146.93 513.41 1104.7 519.31"/><path class="cls-5" d="M859.34,500.42c-3.74,0-3.74,5.81,0,5.81s3.74-5.81,0-5.81Z" transform="translate(179.16 98.07)"/><path class="cls-5" d="M711.27,420.15c-3.74,0-3.74,5.82,0,5.82s3.75-5.82,0-5.82Z" transform="translate(179.16 98.07)"/><path class="cls-5" d="M490.05,490c-3.74,0-3.74,5.81,0,5.81s3.75-5.81,0-5.81Z" transform="translate(179.16 98.07)"/><path class="cls-5" d="M467.4,369.55c-3.74,0-3.74,5.82,0,5.82s3.75-5.82,0-5.82Z" transform="translate(179.16 98.07)"/><path class="cls-5" d="M641.6,350.36c-3.75,0-3.75,5.82,0,5.82s3.74-5.82,0-5.82Z" transform="translate(179.16 98.07)"/><path class="cls-5" d="M214.83,423.64c-3.75,0-3.75,5.82,0,5.82s3.74-5.82,0-5.82Z" transform="translate(179.16 98.07)"/><path class="cls-5" d="M362.89,134c-3.75,0-3.75,5.81,0,5.81s3.75-5.81,0-5.81Z" transform="translate(179.16 98.07)"/><path class="cls-5" d="M275.79,55.48c-3.74,0-3.74,5.81,0,5.81s3.75-5.81,0-5.81Z" transform="translate(179.16 98.07)"/><path class="cls-5" d="M80.7,4.88c-3.75,0-3.75,5.81,0,5.81s3.74-5.81,0-5.81Z" transform="translate(179.16 98.07)"/><path class="cls-5" d="M21.47-40.49c-3.74,0-3.74,5.82,0,5.82s3.75-5.82,0-5.82Z" transform="translate(179.16 98.07)"/><path class="cls-5" d="M331.53-61.43c-3.74,0-3.74,5.82,0,5.82s3.75-5.82,0-5.82Z" transform="translate(179.16 98.07)"/><path class="cls-5" d="M517.92,4.88c-3.74,0-3.74,5.81,0,5.81s3.75-5.81,0-5.81Z" transform="translate(179.16 98.07)"/><path class="cls-5" d="M660.76,20.58c-3.75,0-3.75,5.82,0,5.82s3.74-5.82,0-5.82Z" transform="translate(179.16 98.07)"/><path class="cls-5" d="M817.53,27.56c-3.74,0-3.74,5.82,0,5.82s3.74-5.82,0-5.82Z" transform="translate(179.16 98.07)"/><path class="cls-5" d="M854.11,79.9c-3.74,0-3.74,5.82,0,5.82s3.75-5.82,0-5.82Z" transform="translate(179.16 98.07)"/><path class="cls-5" d="M906.37,341.64c-3.74,0-3.74,5.81,0,5.81s3.74-5.81,0-5.81Z" transform="translate(179.16 98.07)"/><path class="cls-5" d="M882,414.92c-3.74,0-3.74,5.81,0,5.81s3.75-5.81,0-5.81Z" transform="translate(179.16 98.07)"/><path class="cls-5" d="M207.86,523.1c-3.75,0-3.75,5.81,0,5.81s3.74-5.81,0-5.81Z" transform="translate(179.16 98.07)"/><path class="cls-5" d="M82.44,509.14c-3.74,0-3.74,5.82,0,5.82s3.75-5.82,0-5.82Z" transform="translate(179.16 98.07)"/><path class="cls-5" d="M-37.75,463.77c-3.75,0-3.75,5.82,0,5.82s3.74-5.82,0-5.82Z" transform="translate(179.16 98.07)"/><path class="cls-5" d="M-93.49,120c-3.75,0-3.75,5.81,0,5.81s3.74-5.81,0-5.81Z" transform="translate(179.16 98.07)"/><path class="cls-5" d="M-6.4-2.1c-3.74,0-3.74,5.81,0,5.81s3.75-5.81,0-5.81Z" transform="translate(179.16 98.07)"/><path class="cls-5" d="M119-56.19c-3.74,0-3.74,5.81,0,5.81s3.75-5.81,0-5.81Z" transform="translate(179.16 98.07)"/><path class="cls-5" d="M268.83-54.45c-3.75,0-3.75,5.82,0,5.82s3.74-5.82,0-5.82Z" transform="translate(179.16 98.07)"/><path class="cls-5" d="M470.89-21.3c-3.75,0-3.75,5.82,0,5.82s3.74-5.82,0-5.82Z" transform="translate(179.16 98.07)"/><path class="cls-5" d="M721.73,74.67c-3.75,0-3.75,5.82,0,5.82s3.74-5.82,0-5.82Z" transform="translate(179.16 98.07)"/><path class="cls-5" d="M437.79,109.57c-3.74,0-3.74,5.81,0,5.81s3.75-5.81,0-5.81Z" transform="translate(179.16 98.07)"/><path class="cls-5" d="M441.28,156.68c-3.75,0-3.75,5.82,0,5.82s3.74-5.82,0-5.82Z" transform="translate(179.16 98.07)"/><path class="cls-5" d="M678.18,310.23c-3.75,0-3.75,5.81,0,5.81s3.74-5.81,0-5.81Z" transform="translate(179.16 98.07)"/><path class="cls-5" d="M666,526.59c-3.74,0-3.74,5.81,0,5.81s3.75-5.81,0-5.81Z" transform="translate(179.16 98.07)"/><path class="cls-5" d="M918.56,526.59c-3.74,0-3.74,5.81,0,5.81s3.75-5.81,0-5.81Z" transform="translate(179.16 98.07)"/><path class="cls-5" d="M871.53,3.13c-3.74,0-3.74,5.82,0,5.82s3.74-5.82,0-5.82Z" transform="translate(179.16 98.07)"/><path class="cls-5" d="M-53.43-98.07c-3.75,0-3.75,5.82,0,5.82s3.74-5.82,0-5.82Z" transform="translate(179.16 98.07)"/><path class="cls-5" d="M-135.3-89.35c-3.74,0-3.74,5.82,0,5.82s3.75-5.82,0-5.82Z" transform="translate(179.16 98.07)"/><path class="cls-5" d="M-37.75,434.11c-3.75,0-3.75,5.82,0,5.82s3.74-5.82,0-5.82Z" transform="translate(179.16 98.07)"/><path class="cls-5" d="M-76.08-70.44a1.45,1.45,0,0,0,0,2.9,1.45,1.45,0,0,0,0-2.9Z" transform="translate(179.16 98.07)"/><path class="cls-5" d="M72,9.82a1.46,1.46,0,0,0,0,2.91,1.46,1.46,0,0,0,0-2.91Z" transform="translate(179.16 98.07)"/><path class="cls-5" d="M293.21-60a1.46,1.46,0,0,0,0,2.91,1.46,1.46,0,0,0,0-2.91Z" transform="translate(179.16 98.07)"/><path class="cls-5" d="M315.86,60.42a1.46,1.46,0,0,0,0,2.91,1.46,1.46,0,0,0,0-2.91Z" transform="translate(179.16 98.07)"/><path class="cls-5" d="M141.66,79.61a1.46,1.46,0,0,0,0,2.91,1.46,1.46,0,0,0,0-2.91Z" transform="translate(179.16 98.07)"/><path class="cls-5" d="M568.44,6.33a1.46,1.46,0,0,0,0,2.91,1.46,1.46,0,0,0,0-2.91Z" transform="translate(179.16 98.07)"/><path class="cls-5" d="M420.37,296a1.46,1.46,0,0,0,0,2.91,1.46,1.46,0,0,0,0-2.91Z" transform="translate(179.16 98.07)"/><path class="cls-5" d="M507.47,374.5a1.45,1.45,0,0,0,0,2.9,1.45,1.45,0,0,0,0-2.9Z" transform="translate(179.16 98.07)"/><path class="cls-5" d="M702.56,425.1a1.45,1.45,0,0,0,0,2.9,1.45,1.45,0,0,0,0-2.9Z" transform="translate(179.16 98.07)"/><path class="cls-5" d="M761.79,470.46a1.46,1.46,0,0,0,0,2.91,1.46,1.46,0,0,0,0-2.91Z" transform="translate(179.16 98.07)"/><path class="cls-5" d="M451.73,491.4a1.46,1.46,0,0,0,0,2.91,1.46,1.46,0,0,0,0-2.91Z" transform="translate(179.16 98.07)"/><path class="cls-5" d="M265.34,425.1a1.45,1.45,0,0,0,0,2.9,1.45,1.45,0,0,0,0-2.9Z" transform="translate(179.16 98.07)"/><path class="cls-5" d="M122.5,409.39a1.46,1.46,0,0,0,0,2.91,1.46,1.46,0,0,0,0-2.91Z" transform="translate(179.16 98.07)"/><path class="cls-5" d="M-34.27,402.41a1.46,1.46,0,0,0,0,2.91,1.46,1.46,0,0,0,0-2.91Z" transform="translate(179.16 98.07)"/><path class="cls-5" d="M-70.85,350.07a1.46,1.46,0,0,0,0,2.91,1.46,1.46,0,0,0,0-2.91Z" transform="translate(179.16 98.07)"/><path class="cls-5" d="M-123.11,88.34a1.46,1.46,0,0,0,0,2.91,1.46,1.46,0,0,0,0-2.91Z" transform="translate(179.16 98.07)"/><path class="cls-5" d="M-98.72,15.05a1.46,1.46,0,0,0,0,2.91,1.46,1.46,0,0,0,0-2.91Z" transform="translate(179.16 98.07)"/><path class="cls-5" d="M575.4-93.13a1.46,1.46,0,0,0,0,2.91,1.46,1.46,0,0,0,0-2.91Z" transform="translate(179.16 98.07)"/><path class="cls-5" d="M700.82-79.17a1.46,1.46,0,0,0,0,2.91,1.46,1.46,0,0,0,0-2.91Z" transform="translate(179.16 98.07)"/><path class="cls-5" d="M821-33.8a1.46,1.46,0,0,0,0,2.91,1.46,1.46,0,0,0,0-2.91Z" transform="translate(179.16 98.07)"/><path class="cls-5" d="M876.76,309.94a1.45,1.45,0,0,0,0,2.9,1.45,1.45,0,0,0,0-2.9Z" transform="translate(179.16 98.07)"/><path class="cls-5" d="M789.66,432.08a1.46,1.46,0,0,0,0,2.91,1.46,1.46,0,0,0,0-2.91Z" transform="translate(179.16 98.07)"/><path class="cls-5" d="M664.24,486.17a1.45,1.45,0,0,0,0,2.9,1.45,1.45,0,0,0,0-2.9Z" transform="translate(179.16 98.07)"/><path class="cls-5" d="M514.44,484.42a1.46,1.46,0,0,0,0,2.91,1.46,1.46,0,0,0,0-2.91Z" transform="translate(179.16 98.07)"/><path class="cls-5" d="M312.37,451.27a1.46,1.46,0,0,0,0,2.91,1.46,1.46,0,0,0,0-2.91Z" transform="translate(179.16 98.07)"/><path class="cls-5" d="M61.54,355.3a1.46,1.46,0,0,0,0,2.91,1.46,1.46,0,0,0,0-2.91Z" transform="translate(179.16 98.07)"/><path class="cls-5" d="M345.47,320.4a1.46,1.46,0,0,0,0,2.91,1.46,1.46,0,0,0,0-2.91Z" transform="translate(179.16 98.07)"/><path class="cls-5" d="M342,273.29a1.46,1.46,0,0,0,0,2.91,1.46,1.46,0,0,0,0-2.91Z" transform="translate(179.16 98.07)"/><path class="cls-5" d="M105.08,119.75a1.46,1.46,0,0,0,0,2.91,1.46,1.46,0,0,0,0-2.91Z" transform="translate(179.16 98.07)"/><path class="cls-5" d="M117.28-96.62a1.46,1.46,0,0,0,0,2.91,1.46,1.46,0,0,0,0-2.91Z" transform="translate(179.16 98.07)"/><path class="cls-5" d="M-135.3-96.62a1.46,1.46,0,0,0,0,2.91,1.46,1.46,0,0,0,0-2.91Z" transform="translate(179.16 98.07)"/><path class="cls-5" d="M-88.27,426.84a1.46,1.46,0,0,0,0,2.91,1.46,1.46,0,0,0,0-2.91Z" transform="translate(179.16 98.07)"/><path class="cls-5" d="M836.69,528a1.46,1.46,0,0,0,0,2.91,1.46,1.46,0,0,0,0-2.91Z" transform="translate(179.16 98.07)"/><path class="cls-5" d="M918.56,519.32a1.46,1.46,0,0,0,0,2.91,1.46,1.46,0,0,0,0-2.91Z" transform="translate(179.16 98.07)"/><path class="cls-5" d="M821-4.14a1.46,1.46,0,0,0,0,2.91,1.46,1.46,0,0,0,0-2.91Z" transform="translate(179.16 98.07)"/><path class="cls-5" d="M1069.39,613.75c-3.74,0-3.74,5.82,0,5.82s3.75-5.82,0-5.82Z" transform="translate(179.16 98.07)"/><path class="cls-5" d="M921.33,533.48c-3.75,0-3.75,5.82,0,5.82s3.74-5.82,0-5.82Z" transform="translate(179.16 98.07)"/><path class="cls-5" d="M700.1,603.28c-3.74,0-3.74,5.82,0,5.82s3.75-5.82,0-5.82Z" transform="translate(179.16 98.07)"/><path class="cls-5" d="M677.46,482.88c-3.75,0-3.75,5.82,0,5.82s3.74-5.82,0-5.82Z" transform="translate(179.16 98.07)"/><path class="cls-5" d="M851.65,463.69c-3.74,0-3.74,5.82,0,5.82s3.74-5.82,0-5.82Z" transform="translate(179.16 98.07)"/><path class="cls-5" d="M424.88,537c-3.74,0-3.74,5.82,0,5.82s3.75-5.82,0-5.82Z" transform="translate(179.16 98.07)"/><path class="cls-5" d="M572.94,247.33c-3.74,0-3.74,5.81,0,5.81s3.75-5.81,0-5.81Z" transform="translate(179.16 98.07)"/><path class="cls-5" d="M485.85,168.81c-3.75,0-3.75,5.82,0,5.82s3.74-5.82,0-5.82Z" transform="translate(179.16 98.07)"/><path class="cls-5" d="M290.75,118.21c-3.74,0-3.74,5.82,0,5.82s3.75-5.82,0-5.82Z" transform="translate(179.16 98.07)"/><path class="cls-5" d="M231.53,72.84c-3.75,0-3.75,5.82,0,5.82s3.74-5.82,0-5.82Z" transform="translate(179.16 98.07)"/><path class="cls-5" d="M541.59,51.9c-3.75,0-3.75,5.82,0,5.82s3.74-5.82,0-5.82Z" transform="translate(179.16 98.07)"/><path class="cls-5" d="M728,118.21c-3.75,0-3.75,5.82,0,5.82s3.74-5.82,0-5.82Z" transform="translate(179.16 98.07)"/><path class="cls-5" d="M870.81,133.91c-3.74,0-3.74,5.82,0,5.82s3.75-5.82,0-5.82Z" transform="translate(179.16 98.07)"/><path class="cls-5" d="M1027.59,140.89c-3.75,0-3.75,5.82,0,5.82s3.74-5.82,0-5.82Z" transform="translate(179.16 98.07)"/><path class="cls-5" d="M1064.17,193.24c-3.75,0-3.75,5.81,0,5.81s3.74-5.81,0-5.81Z" transform="translate(179.16 98.07)"/><path class="cls-5" d="M1116.42,455c-3.74,0-3.74,5.81,0,5.81s3.75-5.81,0-5.81Z" transform="translate(179.16 98.07)"/><path class="cls-5" d="M1092,528.25c-3.75,0-3.75,5.82,0,5.82s3.74-5.82,0-5.82Z" transform="translate(179.16 98.07)"/><path class="cls-5" d="M417.91,636.43c-3.74,0-3.74,5.82,0,5.82s3.75-5.82,0-5.82Z" transform="translate(179.16 98.07)"/><path class="cls-5" d="M292.5,622.47c-3.75,0-3.75,5.82,0,5.82s3.74-5.82,0-5.82Z" transform="translate(179.16 98.07)"/><path class="cls-5" d="M172.3,577.11c-3.74,0-3.74,5.81,0,5.81s3.75-5.81,0-5.81Z" transform="translate(179.16 98.07)"/><path class="cls-5" d="M116.56,233.37c-3.74,0-3.74,5.81,0,5.81s3.74-5.81,0-5.81Z" transform="translate(179.16 98.07)"/><path class="cls-5" d="M203.66,111.23c-3.75,0-3.75,5.82,0,5.82s3.74-5.82,0-5.82Z" transform="translate(179.16 98.07)"/><path class="cls-5" d="M329.08,57.14c-3.75,0-3.75,5.82,0,5.82s3.74-5.82,0-5.82Z" transform="translate(179.16 98.07)"/><path class="cls-5" d="M478.88,58.88c-3.75,0-3.75,5.82,0,5.82s3.74-5.82,0-5.82Z" transform="translate(179.16 98.07)"/><path class="cls-5" d="M680.94,92c-3.74,0-3.74,5.81,0,5.81s3.75-5.81,0-5.81Z" transform="translate(179.16 98.07)"/><path class="cls-5" d="M931.78,188c-3.74,0-3.74,5.82,0,5.82s3.75-5.82,0-5.82Z" transform="translate(179.16 98.07)"/><path class="cls-5" d="M647.85,222.9c-3.75,0-3.75,5.82,0,5.82s3.74-5.82,0-5.82Z" transform="translate(179.16 98.07)"/><path class="cls-5" d="M651.33,270c-3.74,0-3.74,5.82,0,5.82s3.74-5.82,0-5.82Z" transform="translate(179.16 98.07)"/><path class="cls-5" d="M888.23,423.56c-3.74,0-3.74,5.82,0,5.82s3.75-5.82,0-5.82Z" transform="translate(179.16 98.07)"/><path class="cls-5" d="M876,639.92c-3.75,0-3.75,5.82,0,5.82s3.74-5.82,0-5.82Z" transform="translate(179.16 98.07)"/><path class="cls-5" d="M1128.62,639.92c-3.75,0-3.75,5.82,0,5.82s3.74-5.82,0-5.82Z" transform="translate(179.16 98.07)"/><path class="cls-5" d="M1081.58,116.46c-3.74,0-3.74,5.82,0,5.82s3.75-5.82,0-5.82Z" transform="translate(179.16 98.07)"/><path class="cls-5" d="M156.62,15.26c-3.74,0-3.74,5.82,0,5.82s3.75-5.82,0-5.82Z" transform="translate(179.16 98.07)"/><path class="cls-5" d="M74.75,24C71,24,71,29.8,74.75,29.8S78.5,24,74.75,24Z" transform="translate(179.16 98.07)"/><path class="cls-5" d="M172.3,547.44c-3.74,0-3.74,5.82,0,5.82s3.75-5.82,0-5.82Z" transform="translate(179.16 98.07)"/><path class="cls-5" d="M134,42.89a1.46,1.46,0,0,0,0,2.91,1.46,1.46,0,0,0,0-2.91Z" transform="translate(179.16 98.07)"/><path class="cls-5" d="M282,123.15a1.46,1.46,0,0,0,0,2.91,1.46,1.46,0,0,0,0-2.91Z" transform="translate(179.16 98.07)"/><path class="cls-5" d="M503.27,53.36a1.46,1.46,0,0,0,0,2.91,1.46,1.46,0,0,0,0-2.91Z" transform="translate(179.16 98.07)"/><path class="cls-5" d="M525.91,173.75a1.46,1.46,0,0,0,0,2.91,1.46,1.46,0,0,0,0-2.91Z" transform="translate(179.16 98.07)"/><path class="cls-5" d="M351.72,193a1.45,1.45,0,0,0,0,2.9,1.45,1.45,0,0,0,0-2.9Z" transform="translate(179.16 98.07)"/><path class="cls-5" d="M778.49,119.66a1.46,1.46,0,0,0,0,2.91,1.46,1.46,0,0,0,0-2.91Z" transform="translate(179.16 98.07)"/><path class="cls-5" d="M630.43,409.31a1.46,1.46,0,0,0,0,2.91,1.46,1.46,0,0,0,0-2.91Z" transform="translate(179.16 98.07)"/><path class="cls-5" d="M717.52,487.83a1.46,1.46,0,0,0,0,2.91,1.46,1.46,0,0,0,0-2.91Z" transform="translate(179.16 98.07)"/><path class="cls-5" d="M912.62,538.43a1.46,1.46,0,0,0,0,2.91,1.46,1.46,0,0,0,0-2.91Z" transform="translate(179.16 98.07)"/><path class="cls-5" d="M971.84,583.8a1.46,1.46,0,0,0,0,2.91,1.46,1.46,0,0,0,0-2.91Z" transform="translate(179.16 98.07)"/><path class="cls-5" d="M661.78,604.74a1.45,1.45,0,0,0,0,2.9,1.45,1.45,0,0,0,0-2.9Z" transform="translate(179.16 98.07)"/><path class="cls-5" d="M475.4,538.43a1.46,1.46,0,0,0,0,2.91,1.46,1.46,0,0,0,0-2.91Z" transform="translate(179.16 98.07)"/><path class="cls-5" d="M332.56,522.72a1.46,1.46,0,0,0,0,2.91,1.46,1.46,0,0,0,0-2.91Z" transform="translate(179.16 98.07)"/><path class="cls-5" d="M175.78,515.74a1.46,1.46,0,0,0,0,2.91,1.46,1.46,0,0,0,0-2.91Z" transform="translate(179.16 98.07)"/><path class="cls-5" d="M139.2,463.4a1.46,1.46,0,0,0,0,2.91,1.46,1.46,0,0,0,0-2.91Z" transform="translate(179.16 98.07)"/><path class="cls-5" d="M86.94,201.67a1.46,1.46,0,0,0,0,2.91,1.46,1.46,0,0,0,0-2.91Z" transform="translate(179.16 98.07)"/><path class="cls-5" d="M111.33,128.39a1.45,1.45,0,0,0,0,2.9,1.45,1.45,0,0,0,0-2.9Z" transform="translate(179.16 98.07)"/><path class="cls-5" d="M785.46,20.21a1.46,1.46,0,0,0,0,2.91,1.46,1.46,0,0,0,0-2.91Z" transform="translate(179.16 98.07)"/><path class="cls-5" d="M910.88,34.16a1.46,1.46,0,0,0,0,2.91,1.46,1.46,0,0,0,0-2.91Z" transform="translate(179.16 98.07)"/><path class="cls-5" d="M1031.07,79.53a1.46,1.46,0,0,0,0,2.91,1.46,1.46,0,0,0,0-2.91Z" transform="translate(179.16 98.07)"/><path class="cls-5" d="M1086.81,423.27a1.46,1.46,0,0,0,0,2.91,1.46,1.46,0,0,0,0-2.91Z" transform="translate(179.16 98.07)"/><path class="cls-5" d="M999.72,545.41a1.46,1.46,0,0,0,0,2.91,1.46,1.46,0,0,0,0-2.91Z" transform="translate(179.16 98.07)"/><path class="cls-5" d="M874.3,599.5a1.46,1.46,0,0,0,0,2.91,1.46,1.46,0,0,0,0-2.91Z" transform="translate(179.16 98.07)"/><path class="cls-5" d="M724.49,597.75a1.46,1.46,0,0,0,0,2.91,1.46,1.46,0,0,0,0-2.91Z" transform="translate(179.16 98.07)"/><path class="cls-5" d="M271.59,468.64a1.45,1.45,0,0,0,0,2.9,1.45,1.45,0,0,0,0-2.9Z" transform="translate(179.16 98.07)"/><path class="cls-5" d="M555.52,433.74a1.45,1.45,0,0,0,0,2.9,1.45,1.45,0,0,0,0-2.9Z" transform="translate(179.16 98.07)"/><path class="cls-5" d="M552,386.62a1.46,1.46,0,0,0,0,2.91,1.46,1.46,0,0,0,0-2.91Z" transform="translate(179.16 98.07)"/><path class="cls-5" d="M315.14,233.08a1.46,1.46,0,0,0,0,2.91,1.46,1.46,0,0,0,0-2.91Z" transform="translate(179.16 98.07)"/><path class="cls-5" d="M327.33,16.72a1.45,1.45,0,0,0,0,2.9,1.45,1.45,0,0,0,0-2.9Z" transform="translate(179.16 98.07)"/><path class="cls-5" d="M74.75,16.72a1.45,1.45,0,0,0,0,2.9,1.45,1.45,0,0,0,0-2.9Z" transform="translate(179.16 98.07)"/><path class="cls-5" d="M121.79,540.17a1.46,1.46,0,0,0,0,2.91,1.46,1.46,0,0,0,0-2.91Z" transform="translate(179.16 98.07)"/><path class="cls-5" d="M1046.75,641.38a1.45,1.45,0,0,0,0,2.9,1.45,1.45,0,0,0,0-2.9Z" transform="translate(179.16 98.07)"/><path class="cls-5" d="M1128.62,632.65a1.46,1.46,0,0,0,0,2.91,1.46,1.46,0,0,0,0-2.91Z" transform="translate(179.16 98.07)"/><path class="cls-5" d="M1031.07,109.19a1.46,1.46,0,0,0,0,2.91,1.46,1.46,0,0,0,0-2.91Z" transform="translate(179.16 98.07)"/><path class="cls-5" d="M1037.84,798.2c-3.74,0-3.74,5.82,0,5.82s3.74-5.82,0-5.82Z" transform="translate(179.16 98.07)"/><path class="cls-5" d="M889.78,717.94c-3.75,0-3.75,5.82,0,5.82s3.74-5.82,0-5.82Z" transform="translate(179.16 98.07)"/><path class="cls-5" d="M668.55,787.73c-3.74,0-3.74,5.82,0,5.82s3.75-5.82,0-5.82Z" transform="translate(179.16 98.07)"/><path class="cls-5" d="M645.91,667.34c-3.75,0-3.75,5.82,0,5.82s3.74-5.82,0-5.82Z" transform="translate(179.16 98.07)"/><path class="cls-5" d="M820.1,648.15c-3.74,0-3.74,5.81,0,5.81s3.74-5.81,0-5.81Z" transform="translate(179.16 98.07)"/><path class="cls-5" d="M393.33,721.43c-3.75,0-3.75,5.82,0,5.82s3.74-5.82,0-5.82Z" transform="translate(179.16 98.07)"/><path class="cls-5" d="M541.39,431.78c-3.74,0-3.74,5.82,0,5.82s3.75-5.82,0-5.82Z" transform="translate(179.16 98.07)"/><path class="cls-5" d="M454.3,353.26c-3.75,0-3.75,5.82,0,5.82s3.74-5.82,0-5.82Z" transform="translate(179.16 98.07)"/><path class="cls-5" d="M259.2,302.66c-3.74,0-3.74,5.82,0,5.82s3.75-5.82,0-5.82Z" transform="translate(179.16 98.07)"/><path class="cls-5" d="M200,257.3c-3.75,0-3.75,5.81,0,5.81s3.74-5.81,0-5.81Z" transform="translate(179.16 98.07)"/><path class="cls-5" d="M510,236.36c-3.75,0-3.75,5.82,0,5.82s3.74-5.82,0-5.82Z" transform="translate(179.16 98.07)"/><path class="cls-5" d="M696.42,302.66c-3.74,0-3.74,5.82,0,5.82s3.75-5.82,0-5.82Z" transform="translate(179.16 98.07)"/><path class="cls-5" d="M839.26,318.37c-3.74,0-3.74,5.81,0,5.81s3.75-5.81,0-5.81Z" transform="translate(179.16 98.07)"/><path class="cls-5" d="M996,325.35c-3.75,0-3.75,5.81,0,5.81s3.74-5.81,0-5.81Z" transform="translate(179.16 98.07)"/><path class="cls-5" d="M1032.62,377.69c-3.75,0-3.75,5.82,0,5.82s3.74-5.82,0-5.82Z" transform="translate(179.16 98.07)"/><path class="cls-5" d="M1084.87,639.42c-3.74,0-3.74,5.82,0,5.82s3.75-5.82,0-5.82Z" transform="translate(179.16 98.07)"/><path class="cls-5" d="M1060.49,712.7c-3.75,0-3.75,5.82,0,5.82s3.74-5.82,0-5.82Z" transform="translate(179.16 98.07)"/><path class="cls-5" d="M386.36,820.89c-3.74,0-3.74,5.81,0,5.81s3.75-5.81,0-5.81Z" transform="translate(179.16 98.07)"/><path class="cls-5" d="M260.94,806.93c-3.74,0-3.74,5.81,0,5.81s3.75-5.81,0-5.81Z" transform="translate(179.16 98.07)"/><path class="cls-5" d="M140.75,761.56c-3.74,0-3.74,5.82,0,5.82s3.75-5.82,0-5.82Z" transform="translate(179.16 98.07)"/><path class="cls-5" d="M85,417.82c-3.74,0-3.74,5.82,0,5.82s3.74-5.82,0-5.82Z" transform="translate(179.16 98.07)"/><path class="cls-5" d="M172.1,295.69c-3.74,0-3.74,5.81,0,5.81s3.75-5.81,0-5.81Z" transform="translate(179.16 98.07)"/><path class="cls-5" d="M297.52,241.59c-3.74,0-3.74,5.82,0,5.82s3.75-5.82,0-5.82Z" transform="translate(179.16 98.07)"/><path class="cls-5" d="M447.33,243.34c-3.75,0-3.75,5.82,0,5.82s3.74-5.82,0-5.82Z" transform="translate(179.16 98.07)"/><path class="cls-5" d="M649.39,276.49c-3.74,0-3.74,5.82,0,5.82s3.75-5.82,0-5.82Z" transform="translate(179.16 98.07)"/><path class="cls-5" d="M900.23,372.46c-3.75,0-3.75,5.81,0,5.81s3.75-5.81,0-5.81Z" transform="translate(179.16 98.07)"/><path class="cls-5" d="M616.29,407.35c-3.74,0-3.74,5.82,0,5.82s3.75-5.82,0-5.82Z" transform="translate(179.16 98.07)"/><path class="cls-5" d="M619.78,454.47c-3.75,0-3.75,5.81,0,5.81s3.74-5.81,0-5.81Z" transform="translate(179.16 98.07)"/><path class="cls-5" d="M856.68,608c-3.74,0-3.74,5.81,0,5.81s3.74-5.81,0-5.81Z" transform="translate(179.16 98.07)"/><path class="cls-5" d="M844.49,824.38c-3.75,0-3.75,5.81,0,5.81s3.74-5.81,0-5.81Z" transform="translate(179.16 98.07)"/><path class="cls-5" d="M1097.07,824.38c-3.75,0-3.75,5.81,0,5.81s3.74-5.81,0-5.81Z" transform="translate(179.16 98.07)"/><path class="cls-5" d="M1050,300.92c-3.74,0-3.74,5.82,0,5.82s3.75-5.82,0-5.82Z" transform="translate(179.16 98.07)"/><path class="cls-5" d="M125.07,199.72c-3.74,0-3.74,5.81,0,5.81s3.75-5.81,0-5.81Z" transform="translate(179.16 98.07)"/><path class="cls-5" d="M43.2,208.44c-3.74,0-3.74,5.82,0,5.82s3.75-5.82,0-5.82Z" transform="translate(179.16 98.07)"/><path class="cls-5" d="M140.75,731.9c-3.74,0-3.74,5.81,0,5.81s3.75-5.81,0-5.81Z" transform="translate(179.16 98.07)"/><path class="cls-5" d="M102.43,227.34a1.46,1.46,0,0,0,0,2.91,1.46,1.46,0,0,0,0-2.91Z" transform="translate(179.16 98.07)"/><path class="cls-5" d="M250.49,307.61a1.46,1.46,0,0,0,0,2.91,1.46,1.46,0,0,0,0-2.91Z" transform="translate(179.16 98.07)"/><path class="cls-5" d="M471.71,237.81a1.46,1.46,0,0,0,0,2.91,1.46,1.46,0,0,0,0-2.91Z" transform="translate(179.16 98.07)"/><path class="cls-5" d="M494.36,358.21a1.46,1.46,0,0,0,0,2.91,1.46,1.46,0,0,0,0-2.91Z" transform="translate(179.16 98.07)"/><path class="cls-5" d="M320.17,377.4a1.46,1.46,0,0,0,0,2.91,1.46,1.46,0,0,0,0-2.91Z" transform="translate(179.16 98.07)"/><path class="cls-5" d="M746.94,304.12a1.46,1.46,0,0,0,0,2.91,1.46,1.46,0,0,0,0-2.91Z" transform="translate(179.16 98.07)"/><path class="cls-5" d="M598.87,593.76a1.46,1.46,0,0,0,0,2.91,1.46,1.46,0,0,0,0-2.91Z" transform="translate(179.16 98.07)"/><path class="cls-5" d="M686,672.28a1.46,1.46,0,0,0,0,2.91,1.46,1.46,0,0,0,0-2.91Z" transform="translate(179.16 98.07)"/><path class="cls-5" d="M881.07,722.88a1.46,1.46,0,0,0,0,2.91,1.46,1.46,0,0,0,0-2.91Z" transform="translate(179.16 98.07)"/><path class="cls-5" d="M940.29,768.25a1.46,1.46,0,0,0,0,2.91,1.46,1.46,0,0,0,0-2.91Z" transform="translate(179.16 98.07)"/><path class="cls-5" d="M630.23,789.19a1.46,1.46,0,0,0,0,2.91,1.46,1.46,0,0,0,0-2.91Z" transform="translate(179.16 98.07)"/><path class="cls-5" d="M443.85,722.88a1.46,1.46,0,0,0,0,2.91,1.46,1.46,0,0,0,0-2.91Z" transform="translate(179.16 98.07)"/><path class="cls-5" d="M301,707.18a1.46,1.46,0,0,0,0,2.91,1.46,1.46,0,0,0,0-2.91Z" transform="translate(179.16 98.07)"/><path class="cls-5" d="M144.23,700.2a1.46,1.46,0,0,0,0,2.91,1.46,1.46,0,0,0,0-2.91Z" transform="translate(179.16 98.07)"/><path class="cls-5" d="M107.65,647.86a1.45,1.45,0,0,0,0,2.9,1.45,1.45,0,0,0,0-2.9Z" transform="translate(179.16 98.07)"/><path class="cls-5" d="M55.39,386.12a1.46,1.46,0,0,0,0,2.92,1.46,1.46,0,0,0,0-2.92Z" transform="translate(179.16 98.07)"/><path class="cls-5" d="M79.78,312.84a1.46,1.46,0,0,0,0,2.91,1.46,1.46,0,0,0,0-2.91Z" transform="translate(179.16 98.07)"/><path class="cls-5" d="M753.91,204.66a1.46,1.46,0,0,0,0,2.91,1.46,1.46,0,0,0,0-2.91Z" transform="translate(179.16 98.07)"/><path class="cls-5" d="M879.32,218.62a1.46,1.46,0,0,0,0,2.91,1.46,1.46,0,0,0,0-2.91Z" transform="translate(179.16 98.07)"/><path class="cls-5" d="M999.52,264a1.45,1.45,0,0,0,0,2.9,1.45,1.45,0,0,0,0-2.9Z" transform="translate(179.16 98.07)"/><path class="cls-5" d="M1055.26,607.73a1.45,1.45,0,0,0,0,2.9,1.45,1.45,0,0,0,0-2.9Z" transform="translate(179.16 98.07)"/><path class="cls-5" d="M968.16,729.86a1.46,1.46,0,0,0,0,2.91,1.46,1.46,0,0,0,0-2.91Z" transform="translate(179.16 98.07)"/><path class="cls-5" d="M842.74,784a1.45,1.45,0,0,0,0,2.9,1.45,1.45,0,0,0,0-2.9Z" transform="translate(179.16 98.07)"/><path class="cls-5" d="M692.94,782.21a1.46,1.46,0,0,0,0,2.91,1.46,1.46,0,0,0,0-2.91Z" transform="translate(179.16 98.07)"/><path class="cls-5" d="M490.88,749.06a1.46,1.46,0,0,0,0,2.91,1.46,1.46,0,0,0,0-2.91Z" transform="translate(179.16 98.07)"/><path class="cls-5" d="M240,653.09a1.46,1.46,0,0,0,0,2.91,1.46,1.46,0,0,0,0-2.91Z" transform="translate(179.16 98.07)"/><path class="cls-5" d="M524,618.19a1.46,1.46,0,0,0,0,2.91,1.46,1.46,0,0,0,0-2.91Z" transform="translate(179.16 98.07)"/><path class="cls-5" d="M283.59,417.53a1.46,1.46,0,0,0,0,2.91,1.46,1.46,0,0,0,0-2.91Z" transform="translate(179.16 98.07)"/><path class="cls-5" d="M295.78,201.17a1.46,1.46,0,0,0,0,2.91,1.46,1.46,0,0,0,0-2.91Z" transform="translate(179.16 98.07)"/><path class="cls-5" d="M43.2,201.17a1.46,1.46,0,0,0,0,2.91,1.46,1.46,0,0,0,0-2.91Z" transform="translate(179.16 98.07)"/><path class="cls-5" d="M90.24,724.63a1.46,1.46,0,0,0,0,2.91,1.46,1.46,0,0,0,0-2.91Z" transform="translate(179.16 98.07)"/><path class="cls-5" d="M1015.2,825.83a1.46,1.46,0,0,0,0,2.91,1.46,1.46,0,0,0,0-2.91Z" transform="translate(179.16 98.07)"/><path class="cls-5" d="M1097.07,817.11a1.46,1.46,0,0,0,0,2.91,1.46,1.46,0,0,0,0-2.91Z" transform="translate(179.16 98.07)"/><path class="cls-5" d="M999.52,293.65a1.46,1.46,0,0,0,0,2.91,1.46,1.46,0,0,0,0-2.91Z" transform="translate(179.16 98.07)"/><path class="cls-27" d="M520.11,121.12A104.76,104.76,0,1,1,415.35,16.18,104.85,104.85,0,0,1,520.11,121.12Z" transform="translate(179.16 98.07)"/><path class="cls-27" d="M483.23,121.12a67.88,67.88,0,1,1-67.88-68A67.93,67.93,0,0,1,483.23,121.12Z" transform="translate(179.16 98.07)"/><path class="cls-27" d="M462.24,121.12a46.89,46.89,0,1,1-46.89-47A46.93,46.93,0,0,1,462.24,121.12Z" transform="translate(179.16 98.07)"/><path class="cls-5" d="M456.37,121.12a41,41,0,1,1-41-41.09A41.05,41.05,0,0,1,456.37,121.12Z" transform="translate(179.16 98.07)"/></g></svg>